<svg xmlns="http://www.w3.org/2000/svg" viewBox="0 0 87.82 120" x="0px" y="0px"><title>BCI</title><g data-name="Layer 2"><g><path d="M87.82,48A25.64,25.64,0,0,0,73.13,24.93a29.59,29.59,0,0,0-58.44,0,25.21,25.21,0,0,0-6.2,4.13,3,3,0,0,0-.46.41.61.61,0,0,0-.07.1,25.4,25.4,0,0,0,6.73,41.5,29.59,29.59,0,0,0,58.38.33,3,3,0,0,0,1.6-.82,3.64,3.64,0,0,0,.42-.55A25.66,25.66,0,0,0,87.82,48ZM72.76,64.42,62.39,54.06a3,3,0,1,0-4.24,4.24l9.48,9.48a3.22,3.22,0,0,0-.25.92A23.44,23.44,0,0,1,46.91,89.79V75.55h9.27a3,3,0,0,0,0-6H46.91V48A3,3,0,0,0,46,45.88L37.85,37.7a3,3,0,0,0-4.24,4.24l7.3,7.3V89.79A23.44,23.44,0,0,1,20.79,71.08a3,3,0,0,0,.69-.5l8.19-8.19a3,3,0,0,0,0-4.24l-4.09-4.09a3,3,0,0,0-4.25,4.24l2,2-5.57,5.58a19.41,19.41,0,0,1-7.32-30.14L17.34,42a3,3,0,0,0,4.05-4.43l-6.5-5.92a19.44,19.44,0,0,1,3.63-1.87,3,3,0,0,0,1.91-2.51A23.46,23.46,0,0,1,40.91,6.21V16.36H35.73a3,3,0,0,0,0,6h5.18v5.19a3,3,0,0,0,.88,2.12L50,37.85a3,3,0,1,0,4.24-4.24l-7.3-7.31V6.21A23.44,23.44,0,0,1,67.38,27.3a3,3,0,0,0,1.91,2.51,19.62,19.62,0,0,1,11.17,11.1h-12a3,3,0,0,0,0,6H80.73a3.05,3.05,0,0,0,1-.2c0,.43,0,.86,0,1.29A19.6,19.6,0,0,1,72.76,64.42Z"/></g></g><text x="0" y="111" fill="#000000" font-size="5px" font-weight="bold" font-family="'Helvetica Neue', Helvetica, Arial-Unicode, Arial, Sans-serif">Created by Sarah Mautsch</text><text x="0" y="116" fill="#000000" font-size="5px" font-weight="bold" font-family="'Helvetica Neue', Helvetica, Arial-Unicode, Arial, Sans-serif">from the Noun Project</text></svg>